<?xml version="1.0" standalone="no"?>
<!DOCTYPE svg PUBLIC "-//W3C//DTD SVG 20010904//EN"
 "http://www.w3.org/TR/2001/REC-SVG-20010904/DTD/svg10.dtd">
<svg version="1.0" xmlns="http://www.w3.org/2000/svg"
 width="1024.000000pt" height="1024.000000pt" viewBox="0 0 1024.000000 1024.000000"
 preserveAspectRatio="xMidYMid meet">
<metadata>
Created by potrace 1.14, written by Peter Selinger 2001-2017
</metadata>
<g transform="translate(0.000000,1024.000000) scale(0.100000,-0.100000)"
fill="#000000" stroke="none">
<path d="M4998 8014 c-2 -1 -39 -5 -83 -9 -44 -3 -96 -8 -115 -11 -81 -11
-274 -45 -280 -49 -4 -2 -20 -7 -36 -9 -37 -7 -58 -12 -119 -26 -27 -6 -59
-14 -70 -16 -11 -2 -29 -6 -40 -8 -11 -3 -54 -12 -95 -21 -137 -29 -574 -125
-615 -135 -22 -6 -134 -30 -250 -55 -115 -25 -280 -62 -365 -81 -86 -19 -165
-36 -175 -38 -111 -23 -458 -99 -485 -106 -19 -5 -46 -11 -60 -13 -19 -4 -288
-62 -380 -82 -8 -2 -46 -10 -85 -18 -342 -74 -779 -171 -865 -191 -58 -14
-121 -28 -140 -31 -69 -12 -197 -39 -220 -47 -8 -3 -35 -13 -60 -22 -169 -60
-336 -226 -405 -404 -51 -132 -51 -123 -49 -1507 1 -1345 1 -1350 45 -1496 48
-163 231 -367 385 -429 42 -17 239 -69 314 -84 18 -3 589 -131 720 -161 67
-15 699 -156 715 -159 11 -3 144 -32 295 -66 151 -34 294 -66 317 -71 23 -4
82 -18 130 -30 48 -11 97 -23 108 -25 33 -6 55 -11 155 -34 52 -12 102 -23
110 -25 8 -2 114 -26 235 -54 121 -27 276 -62 345 -76 69 -15 152 -33 185 -40
129 -29 258 -57 274 -60 9 -2 89 -19 179 -39 89 -20 197 -38 240 -41 178 -10
249 -16 277 -23 34 -9 73 -8 225 3 152 11 220 18 285 31 11 3 38 7 60 10 22 2
99 18 170 35 112 26 264 60 330 74 78 15 231 49 350 75 77 18 148 33 157 35
51 10 990 222 1103 249 33 8 92 22 130 31 39 9 81 19 95 21 14 3 33 7 42 10
10 3 30 7 45 10 16 3 46 10 68 16 22 5 47 11 55 13 8 2 170 38 360 80 190 42
356 79 370 81 14 3 93 21 175 40 83 19 160 36 173 39 12 3 30 7 40 9 9 2 58
14 107 25 50 12 97 23 105 25 108 27 206 50 212 48 16 -4 126 43 178 76 202
128 327 327 358 567 9 71 8 2586 -1 2630 -4 17 -11 50 -16 75 -37 179 -161
352 -331 464 -59 39 -169 76 -298 101 -13 2 -31 6 -40 9 -9 3 -28 7 -42 10
-14 3 -53 12 -87 20 -34 9 -75 18 -90 21 -15 2 -121 25 -235 49 -113 25 -217
47 -230 50 -53 10 -303 68 -308 71 -3 2 -22 6 -43 9 -38 6 -239 49 -312 66
-22 6 -94 22 -160 36 -66 14 -127 27 -135 29 -8 2 -69 15 -135 29 -67 14 -128
27 -135 30 -8 3 -28 7 -45 10 -16 2 -113 23 -215 46 -102 23 -205 45 -230 50
-25 5 -115 25 -200 45 -85 19 -168 38 -185 41 -16 3 -55 11 -85 19 -30 8 -212
48 -405 89 -192 42 -420 91 -505 111 -136 30 -214 44 -411 70 -47 6 -347 14
-351 9z"/>
</g>
</svg>
